<mxfile host="Electron" modified="2023-08-04T02:38:17.673Z" agent="Mozilla/5.0 (Windows NT 10.0; Win64; x64) AppleWebKit/537.36 (KHTML, like Gecko) draw.io/21.6.5 Chrome/114.0.5735.243 Electron/25.3.1 Safari/537.36" etag="4_bVbU2L72DPCC9NhuR8" version="21.6.5" type="device">
  <diagram name="Page-1" id="71q-wSQduwxtA3SKnryf">
    <mxGraphModel dx="864" dy="495" grid="1" gridSize="10" guides="1" tooltips="1" connect="1" arrows="1" fold="1" page="1" pageScale="1" pageWidth="1169" pageHeight="827" math="0" shadow="0">
      <root>
        <mxCell id="0" />
        <mxCell id="1" parent="0" />
        <mxCell id="4kBsrwIj2r0Peh6D-8lb-23" value="" style="rounded=0;orthogonalLoop=1;jettySize=auto;html=1;endArrow=halfCircle;endFill=0;endSize=6;strokeWidth=1;sketch=0;exitX=1;exitY=0.5;exitDx=0;exitDy=0;sourcePerimeterSpacing=0;targetPerimeterSpacing=0;" edge="1" target="4kBsrwIj2r0Peh6D-8lb-25" parent="1" source="4kBsrwIj2r0Peh6D-8lb-4">
          <mxGeometry relative="1" as="geometry">
            <mxPoint x="340" y="200" as="sourcePoint" />
          </mxGeometry>
        </mxCell>
        <mxCell id="4kBsrwIj2r0Peh6D-8lb-34" value="Person" style="edgeLabel;html=1;align=center;verticalAlign=middle;resizable=0;points=[];" vertex="1" connectable="0" parent="4kBsrwIj2r0Peh6D-8lb-23">
          <mxGeometry x="-0.3379" relative="1" as="geometry">
            <mxPoint x="4" y="14" as="offset" />
          </mxGeometry>
        </mxCell>
        <mxCell id="4kBsrwIj2r0Peh6D-8lb-24" value="" style="rounded=0;orthogonalLoop=1;jettySize=auto;html=1;endArrow=oval;endFill=0;sketch=0;sourcePerimeterSpacing=0;targetPerimeterSpacing=0;endSize=10;" edge="1" target="4kBsrwIj2r0Peh6D-8lb-25" parent="1">
          <mxGeometry relative="1" as="geometry">
            <mxPoint x="440" y="200" as="sourcePoint" />
          </mxGeometry>
        </mxCell>
        <mxCell id="4kBsrwIj2r0Peh6D-8lb-35" value="Person" style="edgeLabel;html=1;align=center;verticalAlign=middle;resizable=0;points=[];" vertex="1" connectable="0" parent="4kBsrwIj2r0Peh6D-8lb-24">
          <mxGeometry x="-0.169" relative="1" as="geometry">
            <mxPoint x="5" y="-13" as="offset" />
          </mxGeometry>
        </mxCell>
        <mxCell id="4kBsrwIj2r0Peh6D-8lb-6" value="«component»&lt;br&gt;&lt;b&gt;:Customer&lt;br&gt;&lt;/b&gt;" style="html=1;dropTarget=0;whiteSpace=wrap;" vertex="1" parent="1">
          <mxGeometry x="440" y="170" width="150" height="60" as="geometry" />
        </mxCell>
        <mxCell id="4kBsrwIj2r0Peh6D-8lb-7" value="" style="shape=module;jettyWidth=8;jettyHeight=4;" vertex="1" parent="4kBsrwIj2r0Peh6D-8lb-6">
          <mxGeometry x="1" width="20" height="20" relative="1" as="geometry">
            <mxPoint x="-27" y="7" as="offset" />
          </mxGeometry>
        </mxCell>
        <mxCell id="4kBsrwIj2r0Peh6D-8lb-28" style="edgeStyle=orthogonalEdgeStyle;rounded=0;orthogonalLoop=1;jettySize=auto;html=1;endArrow=none;endFill=0;" edge="1" parent="1" source="4kBsrwIj2r0Peh6D-8lb-1">
          <mxGeometry relative="1" as="geometry">
            <mxPoint x="330" y="200" as="targetPoint" />
          </mxGeometry>
        </mxCell>
        <mxCell id="4kBsrwIj2r0Peh6D-8lb-33" value="Person" style="edgeLabel;html=1;align=center;verticalAlign=middle;resizable=0;points=[];" vertex="1" connectable="0" parent="4kBsrwIj2r0Peh6D-8lb-28">
          <mxGeometry x="-0.1897" y="1" relative="1" as="geometry">
            <mxPoint x="19" y="20" as="offset" />
          </mxGeometry>
        </mxCell>
        <mxCell id="4kBsrwIj2r0Peh6D-8lb-1" value="«component»&lt;br&gt;&lt;b&gt;:BackOrder&lt;/b&gt;" style="html=1;dropTarget=0;whiteSpace=wrap;" vertex="1" parent="1">
          <mxGeometry x="150" y="40" width="150" height="60" as="geometry" />
        </mxCell>
        <mxCell id="4kBsrwIj2r0Peh6D-8lb-2" value="" style="shape=module;jettyWidth=8;jettyHeight=4;" vertex="1" parent="4kBsrwIj2r0Peh6D-8lb-1">
          <mxGeometry x="1" width="20" height="20" relative="1" as="geometry">
            <mxPoint x="-27" y="7" as="offset" />
          </mxGeometry>
        </mxCell>
        <mxCell id="4kBsrwIj2r0Peh6D-8lb-4" value="«component»&lt;br&gt;&lt;b&gt;:Order&lt;/b&gt;" style="html=1;dropTarget=0;whiteSpace=wrap;" vertex="1" parent="1">
          <mxGeometry x="150" y="170" width="150" height="60" as="geometry" />
        </mxCell>
        <mxCell id="4kBsrwIj2r0Peh6D-8lb-5" value="" style="shape=module;jettyWidth=8;jettyHeight=4;" vertex="1" parent="4kBsrwIj2r0Peh6D-8lb-4">
          <mxGeometry x="1" width="20" height="20" relative="1" as="geometry">
            <mxPoint x="-27" y="7" as="offset" />
          </mxGeometry>
        </mxCell>
        <mxCell id="4kBsrwIj2r0Peh6D-8lb-27" style="edgeStyle=orthogonalEdgeStyle;rounded=0;orthogonalLoop=1;jettySize=auto;html=1;endArrow=none;endFill=0;" edge="1" parent="1" source="4kBsrwIj2r0Peh6D-8lb-8">
          <mxGeometry relative="1" as="geometry">
            <mxPoint x="400" y="200" as="targetPoint" />
          </mxGeometry>
        </mxCell>
        <mxCell id="4kBsrwIj2r0Peh6D-8lb-36" value="Client" style="edgeLabel;html=1;align=center;verticalAlign=middle;resizable=0;points=[];" vertex="1" connectable="0" parent="4kBsrwIj2r0Peh6D-8lb-27">
          <mxGeometry x="-0.7296" y="1" relative="1" as="geometry">
            <mxPoint x="-1" y="11" as="offset" />
          </mxGeometry>
        </mxCell>
        <mxCell id="4kBsrwIj2r0Peh6D-8lb-8" value="«component»&lt;br&gt;&lt;b&gt;:Organization&lt;br&gt;&lt;/b&gt;" style="html=1;dropTarget=0;whiteSpace=wrap;" vertex="1" parent="1">
          <mxGeometry x="440" y="310" width="150" height="60" as="geometry" />
        </mxCell>
        <mxCell id="4kBsrwIj2r0Peh6D-8lb-9" value="" style="shape=module;jettyWidth=8;jettyHeight=4;" vertex="1" parent="4kBsrwIj2r0Peh6D-8lb-8">
          <mxGeometry x="1" width="20" height="20" relative="1" as="geometry">
            <mxPoint x="-27" y="7" as="offset" />
          </mxGeometry>
        </mxCell>
        <mxCell id="4kBsrwIj2r0Peh6D-8lb-14" value="" style="group;direction=west;flipV=1;flipH=0;rotation=0;" vertex="1" connectable="0" parent="1">
          <mxGeometry x="97" y="65" width="57" height="10" as="geometry" />
        </mxCell>
        <mxCell id="4kBsrwIj2r0Peh6D-8lb-10" value="" style="html=1;rounded=0;direction=west;aspect=fixed;flipH=1;flipV=1;rotation=-180;" vertex="1" parent="4kBsrwIj2r0Peh6D-8lb-14">
          <mxGeometry x="48" width="12" height="12" as="geometry" />
        </mxCell>
        <mxCell id="4kBsrwIj2r0Peh6D-8lb-11" value="" style="endArrow=none;html=1;rounded=0;align=center;verticalAlign=top;endFill=0;labelBackgroundColor=none;endSize=2;" edge="1" source="4kBsrwIj2r0Peh6D-8lb-10" target="4kBsrwIj2r0Peh6D-8lb-12" parent="4kBsrwIj2r0Peh6D-8lb-14">
          <mxGeometry relative="1" as="geometry" />
        </mxCell>
        <mxCell id="4kBsrwIj2r0Peh6D-8lb-12" value="OrderEntry" style="ellipse;html=1;fontSize=11;align=center;fillColor=none;points=[];aspect=fixed;resizable=0;verticalAlign=bottom;labelPosition=center;verticalLabelPosition=top;flipH=1;flipV=0;rotation=0;" vertex="1" parent="4kBsrwIj2r0Peh6D-8lb-14">
          <mxGeometry y="2" width="8" height="8" as="geometry" />
        </mxCell>
        <mxCell id="4kBsrwIj2r0Peh6D-8lb-29" value="" style="html=1;rounded=0;direction=west;aspect=fixed;flipH=1;flipV=1;rotation=-180;" vertex="1" parent="4kBsrwIj2r0Peh6D-8lb-14">
          <mxGeometry x="198" width="12" height="12" as="geometry" />
        </mxCell>
        <mxCell id="4kBsrwIj2r0Peh6D-8lb-30" value="" style="html=1;rounded=0;direction=west;aspect=fixed;flipH=1;flipV=1;rotation=-180;" vertex="1" parent="4kBsrwIj2r0Peh6D-8lb-14">
          <mxGeometry x="197" y="129" width="12" height="12" as="geometry" />
        </mxCell>
        <mxCell id="4kBsrwIj2r0Peh6D-8lb-31" value="" style="html=1;rounded=0;direction=west;aspect=fixed;flipH=1;flipV=1;rotation=-180;fillColor=default;" vertex="1" parent="4kBsrwIj2r0Peh6D-8lb-14">
          <mxGeometry x="338" y="129" width="12" height="12" as="geometry" />
        </mxCell>
        <mxCell id="4kBsrwIj2r0Peh6D-8lb-32" value="" style="html=1;rounded=0;direction=west;aspect=fixed;flipH=1;flipV=1;rotation=-180;" vertex="1" parent="4kBsrwIj2r0Peh6D-8lb-14">
          <mxGeometry x="338" y="269" width="12" height="12" as="geometry" />
        </mxCell>
        <mxCell id="4kBsrwIj2r0Peh6D-8lb-19" value="" style="group;direction=west;flipV=1;flipH=0;rotation=0;" vertex="1" connectable="0" parent="1">
          <mxGeometry x="97" y="194" width="57" height="10" as="geometry" />
        </mxCell>
        <mxCell id="4kBsrwIj2r0Peh6D-8lb-20" value="" style="html=1;rounded=0;direction=west;aspect=fixed;flipH=1;flipV=1;rotation=-180;" vertex="1" parent="4kBsrwIj2r0Peh6D-8lb-19">
          <mxGeometry x="48" width="12" height="12" as="geometry" />
        </mxCell>
        <mxCell id="4kBsrwIj2r0Peh6D-8lb-21" value="" style="endArrow=none;html=1;rounded=0;align=center;verticalAlign=top;endFill=0;labelBackgroundColor=none;endSize=2;" edge="1" parent="4kBsrwIj2r0Peh6D-8lb-19" source="4kBsrwIj2r0Peh6D-8lb-20" target="4kBsrwIj2r0Peh6D-8lb-22">
          <mxGeometry relative="1" as="geometry" />
        </mxCell>
        <mxCell id="4kBsrwIj2r0Peh6D-8lb-22" value="OrderEntry" style="ellipse;html=1;fontSize=11;align=center;fillColor=none;points=[];aspect=fixed;resizable=0;verticalAlign=bottom;labelPosition=center;verticalLabelPosition=top;flipH=1;flipV=0;rotation=0;" vertex="1" parent="4kBsrwIj2r0Peh6D-8lb-19">
          <mxGeometry y="2" width="8" height="8" as="geometry" />
        </mxCell>
        <mxCell id="4kBsrwIj2r0Peh6D-8lb-25" value="" style="ellipse;whiteSpace=wrap;html=1;align=center;aspect=fixed;fillColor=none;strokeColor=none;resizable=0;perimeter=centerPerimeter;rotatable=0;allowArrows=0;points=[];outlineConnect=1;rotation=-180;" vertex="1" parent="1">
          <mxGeometry x="355" y="195" width="10" height="10" as="geometry" />
        </mxCell>
        <mxCell id="4kBsrwIj2r0Peh6D-8lb-37" value="Note: Client interface is a subtype of Person interface" style="text;html=1;align=center;verticalAlign=middle;resizable=0;points=[];autosize=1;strokeColor=none;fillColor=none;" vertex="1" parent="1">
          <mxGeometry x="305" y="378" width="310" height="30" as="geometry" />
        </mxCell>
      </root>
    </mxGraphModel>
  </diagram>
</mxfile>
